<svg xmlns="http://www.w3.org/2000/svg" width="201.661" height="156.849" viewBox="0 0 201.661 156.849">
  <path id="Icon_awesome-shopping-basket" data-name="Icon awesome-shopping-basket" d="M201.661,66.67v5.6a8.4,8.4,0,0,1-8.4,8.4h-2.8l-9.142,64A16.805,16.805,0,0,1,164.68,159.1H36.982A16.806,16.806,0,0,1,20.345,144.67l-9.142-64H8.4a8.4,8.4,0,0,1-8.4-8.4v-5.6a8.4,8.4,0,0,1,8.4-8.4H31.979l37.384-51.4A11.2,11.2,0,1,1,87.485,20.044l-27.8,38.224h82.291l-27.8-38.224A11.2,11.2,0,0,1,132.3,6.864l37.384,51.4h23.577A8.4,8.4,0,0,1,201.661,66.67Zm-92.428,61.619V89.077a8.4,8.4,0,1,0-16.805,0v39.212a8.4,8.4,0,0,0,16.805,0Zm39.212,0V89.077a8.4,8.4,0,1,0-16.805,0v39.212a8.4,8.4,0,0,0,16.805,0Zm-78.424,0V89.077a8.4,8.4,0,1,0-16.805,0v39.212a8.4,8.4,0,0,0,16.805,0Z" transform="translate(0 -2.25)" fill="#fff"/>
</svg>
